# Max2Obj Version 4.0 Mar 10th, 2001
#
mtllib ./torus.mtl
g
# object (null) to come ...
#
v  0.135633 0.000000 -57.278725
v  0.135633 10.664303 -49.530655
v  0.135634 6.590901 -36.994015
v  0.135634 -6.590903 -36.994015
v  0.135633 -10.664303 -49.530655
v  37.040600 0.000000 -43.846416
v  32.060238 10.664303 -37.911049
v  24.001841 6.590901 -28.307426
v  24.001841 -6.590903 -28.307426
v  32.060238 -10.664303 -37.911049
v  56.677319 0.000000 -9.834615
v  49.046963 10.664303 -8.489177
v  36.700783 6.590901 -6.312212
v  36.700783 -6.590903 -6.312212
v  49.046963 -10.664303 -8.489177
v  49.857559 0.000000 28.842178
v  43.147533 10.664303 24.968143
v  32.290485 6.590901 18.699821
v  32.290485 -6.590903 18.699821
v  43.147533 -10.664303 24.968143
v  19.772350 0.000000 54.086658
v  17.122356 10.664303 46.805855
v  12.834574 6.590901 35.025269
v  12.834574 -6.590903 35.025269
v  17.122356 -10.664303 46.805855
v  -19.501091 0.000000 54.086658
v  -16.851095 10.664303 46.805855
v  -12.563311 6.590901 35.025265
v  -12.563311 -6.590903 35.025265
v  -16.851095 -10.664303 46.805855
v  -49.586296 0.000000 28.842165
v  -42.876270 10.664303 24.968130
v  -32.019218 6.590901 18.699814
v  -32.019218 -6.590903 18.699814
v  -42.876270 -10.664303 24.968130
v  -56.406048 0.000000 -9.834633
v  -48.775692 10.664303 -8.489193
v  -36.429512 6.590901 -6.312224
v  -36.429512 -6.590903 -6.312224
v  -48.775692 -10.664303 -8.489193
v  -36.769325 0.000000 -43.846424
v  -31.788961 10.664303 -37.911057
v  -23.730566 6.590901 -28.307430
v  -23.730566 -6.590903 -28.307430
v  -31.788961 -10.664303 -37.911057
# 45 vertices

vt  0.000000 0.000000 0.000000
vt  0.200000 0.000000 0.000000
vt  0.400000 0.000000 0.000000
vt  0.600000 0.000000 0.000000
vt  0.800000 0.000000 0.000000
vt  1.000000 0.000000 0.000000
vt  0.000000 0.111111 0.000000
vt  0.200000 0.111111 0.000000
vt  0.400000 0.111111 0.000000
vt  0.600000 0.111111 0.000000
vt  0.800000 0.111111 0.000000
vt  1.000000 0.111111 0.000000
vt  0.000000 0.222222 0.000000
vt  0.200000 0.222222 0.000000
vt  0.400000 0.222222 0.000000
vt  0.600000 0.222222 0.000000
vt  0.800000 0.222222 0.000000
vt  1.000000 0.222222 0.000000
vt  0.000000 0.333333 0.000000
vt  0.200000 0.333333 0.000000
vt  0.400000 0.333333 0.000000
vt  0.600000 0.333333 0.000000
vt  0.800000 0.333333 0.000000
vt  1.000000 0.333333 0.000000
vt  0.000000 0.444444 0.000000
vt  0.200000 0.444444 0.000000
vt  0.400000 0.444444 0.000000
vt  0.600000 0.444444 0.000000
vt  0.800000 0.444444 0.000000
vt  1.000000 0.444444 0.000000
vt  0.000000 0.555556 0.000000
vt  0.200000 0.555556 0.000000
vt  0.400000 0.555556 0.000000
vt  0.600000 0.555556 0.000000
vt  0.800000 0.555556 0.000000
vt  1.000000 0.555556 0.000000
vt  0.000000 0.666667 0.000000
vt  0.200000 0.666667 0.000000
vt  0.400000 0.666667 0.000000
vt  0.600000 0.666667 0.000000
vt  0.800000 0.666667 0.000000
vt  1.000000 0.666667 0.000000
vt  0.000000 0.777778 0.000000
vt  0.200000 0.777778 0.000000
vt  0.400000 0.777778 0.000000
vt  0.600000 0.777778 0.000000
vt  0.800000 0.777778 0.000000
vt  1.000000 0.777778 0.000000
vt  0.000000 0.888889 0.000000
vt  0.200000 0.888889 0.000000
vt  0.400000 0.888889 0.000000
vt  0.600000 0.888889 0.000000
vt  0.800000 0.888889 0.000000
vt  1.000000 0.888889 0.000000
vt  0.000000 1.000000 0.000000
vt  0.200000 1.000000 0.000000
vt  0.400000 1.000000 0.000000
vt  0.600000 1.000000 0.000000
vt  0.800000 1.000000 0.000000
vt  1.000000 1.000000 0.000000
# 60 texture vertices

vn  0.000000 0.000000 -1.000000
vn  -0.082878 0.951654 -0.295780
vn  -0.048999 0.603364 0.795959
vn  0.048999 -0.603364 0.795959
vn  0.082878 -0.951654 -0.295780
vn  0.642788 -0.000000 -0.766044
vn  0.126636 0.951654 -0.279854
vn  -0.549168 0.603364 0.578244
vn  -0.474097 -0.603364 0.641236
vn  0.253612 -0.951654 -0.173308
vn  0.984808 0.000000 -0.173648
vn  0.276895 0.951654 -0.132981
vn  -0.792375 0.603364 0.089962
vn  -0.775358 -0.603364 0.186471
vn  0.305679 -0.951654 0.030257
vn  0.866025 0.000000 0.500000
vn  0.297592 0.951654 0.076116
vn  -0.664821 0.603364 -0.440414
vn  -0.713820 -0.603364 -0.355545
vn  0.214714 -0.951654 0.219665
vn  0.342020 0.000000 0.939693
vn  0.179043 0.951654 0.249597
vn  -0.226190 0.603364 -0.764715
vn  -0.318278 -0.603364 -0.731198
vn  0.023283 -0.951654 0.306289
vn  -0.342020 0.000000 0.939693
vn  -0.023283 0.951654 0.306289
vn  0.318278 0.603364 -0.731198
vn  0.226190 -0.603364 -0.764715
vn  -0.179043 -0.951654 0.249597
vn  -0.866026 -0.000000 0.500000
vn  -0.214714 0.951654 0.219665
vn  0.713820 0.603364 -0.355545
vn  0.664821 -0.603364 -0.440414
vn  -0.297592 -0.951654 0.076116
vn  -0.984808 -0.000000 -0.173648
vn  -0.305679 0.951654 0.030257
vn  0.775358 0.603364 0.186471
vn  0.792375 -0.603364 0.089963
vn  -0.276895 -0.951654 -0.132981
vn  -0.642788 0.000000 -0.766044
vn  -0.253612 0.951654 -0.173308
vn  0.474097 0.603364 0.641236
vn  0.549168 -0.603364 0.578244
vn  -0.126636 -0.951654 -0.279854
# 45 vertex normals

g (null)
f 1/1/1 7/8/7 6/7/6
f 1/1/1 2/2/2 7/8/7
f 2/2/2 8/9/8 7/8/7
f 2/2/2 3/3/3 8/9/8
f 3/3/3 9/10/9 8/9/8
f 3/3/3 4/4/4 9/10/9
f 4/4/4 10/11/10 9/10/9
f 4/4/4 5/5/5 10/11/10
f 5/5/5 6/12/6 10/11/10
f 5/5/5 1/6/1 6/12/6
f 6/7/6 12/14/12 11/13/11
f 6/7/6 7/8/7 12/14/12
f 7/8/7 13/15/13 12/14/12
f 7/8/7 8/9/8 13/15/13
f 8/9/8 14/16/14 13/15/13
f 8/9/8 9/10/9 14/16/14
f 9/10/9 15/17/15 14/16/14
f 9/10/9 10/11/10 15/17/15
f 10/11/10 11/18/11 15/17/15
f 10/11/10 6/12/6 11/18/11
f 11/13/11 17/20/17 16/19/16
f 11/13/11 12/14/12 17/20/17
f 12/14/12 18/21/18 17/20/17
f 12/14/12 13/15/13 18/21/18
f 13/15/13 19/22/19 18/21/18
f 13/15/13 14/16/14 19/22/19
f 14/16/14 20/23/20 19/22/19
f 14/16/14 15/17/15 20/23/20
f 15/17/15 16/24/16 20/23/20
f 15/17/15 11/18/11 16/24/16
f 16/19/16 22/26/22 21/25/21
f 16/19/16 17/20/17 22/26/22
f 17/20/17 23/27/23 22/26/22
f 17/20/17 18/21/18 23/27/23
f 18/21/18 24/28/24 23/27/23
f 18/21/18 19/22/19 24/28/24
f 19/22/19 25/29/25 24/28/24
f 19/22/19 20/23/20 25/29/25
f 20/23/20 21/30/21 25/29/25
f 20/23/20 16/24/16 21/30/21
f 21/25/21 27/32/27 26/31/26
f 21/25/21 22/26/22 27/32/27
f 22/26/22 28/33/28 27/32/27
f 22/26/22 23/27/23 28/33/28
f 23/27/23 29/34/29 28/33/28
f 23/27/23 24/28/24 29/34/29
f 24/28/24 30/35/30 29/34/29
f 24/28/24 25/29/25 30/35/30
f 25/29/25 26/36/26 30/35/30
f 25/29/25 21/30/21 26/36/26
f 26/31/26 32/38/32 31/37/31
f 26/31/26 27/32/27 32/38/32
f 27/32/27 33/39/33 32/38/32
f 27/32/27 28/33/28 33/39/33
f 28/33/28 34/40/34 33/39/33
f 28/33/28 29/34/29 34/40/34
f 29/34/29 35/41/35 34/40/34
f 29/34/29 30/35/30 35/41/35
f 30/35/30 31/42/31 35/41/35
f 30/35/30 26/36/26 31/42/31
f 31/37/31 37/44/37 36/43/36
f 31/37/31 32/38/32 37/44/37
f 32/38/32 38/45/38 37/44/37
f 32/38/32 33/39/33 38/45/38
f 33/39/33 39/46/39 38/45/38
f 33/39/33 34/40/34 39/46/39
f 34/40/34 40/47/40 39/46/39
f 34/40/34 35/41/35 40/47/40
f 35/41/35 36/48/36 40/47/40
f 35/41/35 31/42/31 36/48/36
f 36/43/36 42/50/42 41/49/41
f 36/43/36 37/44/37 42/50/42
f 37/44/37 43/51/43 42/50/42
f 37/44/37 38/45/38 43/51/43
f 38/45/38 44/52/44 43/51/43
f 38/45/38 39/46/39 44/52/44
f 39/46/39 45/53/45 44/52/44
f 39/46/39 40/47/40 45/53/45
f 40/47/40 41/54/41 45/53/45
f 40/47/40 36/48/36 41/54/41
f 41/49/41 2/56/2 1/55/1
f 41/49/41 42/50/42 2/56/2
f 42/50/42 3/57/3 2/56/2
f 42/50/42 43/51/43 3/57/3
f 43/51/43 4/58/4 3/57/3
f 43/51/43 44/52/44 4/58/4
f 44/52/44 5/59/5 4/58/4
f 44/52/44 45/53/45 5/59/5
f 45/53/45 1/60/1 5/59/5
f 45/53/45 41/54/41 1/60/1
# 90 faces

g
